<?xml version="1.0" encoding="utf-8"?>
<!-- Generator: Adobe Illustrator 22.1.0, SVG Export Plug-In . SVG Version: 6.00 Build 0)  -->
<svg version="1.1" id="Ebene_1" xmlns="http://www.w3.org/2000/svg" xmlns:xlink="http://www.w3.org/1999/xlink" x="0px" y="0px"
	 viewBox="0 0 680 340" style="enable-background:new 0 0 680 340;" xml:space="preserve">
<style type="text/css">
	.st0{fill:#FF2A1B;}
	.st1{fill:#E8412A;}
	.st2{fill:#191E28;}
	.st3{fill:#FFFFFF;}
</style>
<path class="st0" d="M158.5,148c16.3,0,29.5,13.2,29.5,29.5S174.8,207,158.5,207S129,193.8,129,177.5S142.2,148,158.5,148
	 M158.5,120c-31.8,0-57.5,25.7-57.5,57.5s25.7,57.5,57.5,57.5s57.5-25.7,57.5-57.5S190.3,120,158.5,120L158.5,120z"/>
<path class="st0" d="M297.9,232.4l-20.3-37.9h-14.5v37.9h-29.3V122h48.1c31,0,43.6,16,43.6,35.7c0,15.5-8.1,26.4-20.5,32l24.1,42.7
	H297.9z M263.1,174.4h15.7c10.9,0,16-5.2,16-14.8c0-9.5-5-14.6-15.3-14.6h-16.4V174.4z"/>
<path class="st0" d="M346.6,122h50.5c23.3,0,37.4,11,37.4,27.7c0,13.1-9.3,21.5-18.1,23.8c11.9,2.4,22.4,10.9,22.4,27.4
	c0,19.5-14.6,31.5-39.4,31.5h-52.7V122z M394.3,167.5c7.4,0,12.2-4.3,12.2-12.2c0-8.1-4.8-12.7-13.3-12.7h-19.1v25H394.3z
	 M395.5,211.9c8.8,0,14-4.5,14-12.4c0-8.4-5.2-13.1-13.3-13.1h-22v25.5H395.5z"/>
<path class="st0" d="M458,122h29.6v110.4H458V122z"/>
<path class="st0" d="M593.4,145.9h-29.1v86.5h-29.8v-86.5H503V122h93L593.4,145.9z"/>
<path class="st0" d="M98.6,133.1c7.7,0,13.9-6.2,13.9-13.9s-6.2-13.9-13.9-13.9s-13.9,6.2-13.9,13.9S91,133.1,98.6,133.1"/>
</svg>
